<svg width="1200" height="360" viewBox="0 0 1200 360" fill="none" xmlns="http://www.w3.org/2000/svg" role="img" aria-labelledby="title desc">
  <title id="title">Fazedor de Código horizontal logo</title>
  <desc id="desc">Horizontal lockup for Fazedor de Código with the Oficina Viva symbol and wordmark.</desc>
  <rect width="1200" height="360" rx="0" fill="#FCFCF8"/>
  <g transform="translate(40 44) scale(0.53)">
    <rect x="20" y="20" width="472" height="472" rx="52" fill="#F4EFE6"/>
    <rect x="20" y="20" width="472" height="472" rx="52" stroke="#151515" stroke-width="16"/>
    <g opacity="0.16" stroke="#151515" stroke-width="2">
      <path d="M88 76V436"/>
      <path d="M152 76V436"/>
      <path d="M216 76V436"/>
      <path d="M280 76V436"/>
      <path d="M344 76V436"/>
      <path d="M408 76V436"/>
      <path d="M76 104H436"/>
      <path d="M76 168H436"/>
      <path d="M76 232H436"/>
      <path d="M76 296H436"/>
      <path d="M76 360H436"/>
      <path d="M76 424H436"/>
    </g>
    <rect x="122" y="132" width="54" height="220" rx="10" fill="#151515"/>
    <rect x="122" y="132" width="174" height="54" rx="10" fill="#151515"/>
    <rect x="122" y="226" width="142" height="54" rx="10" fill="#151515"/>
    <path d="M330 142L256 370" stroke="#009FB7" stroke-width="34" stroke-linecap="round"/>
    <path d="M323 191L392 256L323 321" stroke="#F26B2E" stroke-width="42" stroke-linecap="round" stroke-linejoin="round"/>
    <rect x="326" y="350" width="62" height="62" rx="16" fill="#2E7D4F"/>
    <path d="M344 381H370" stroke="#FCFCF8" stroke-width="10" stroke-linecap="round"/>
    <circle cx="300" cy="110" r="18" fill="#F5C542" stroke="#151515" stroke-width="8"/>
  </g>
  <g fill="#151515">
    <text x="350" y="143" font-family="Sora, Space Grotesk, Inter, Arial, sans-serif" font-size="58" font-weight="700">Fazedor de</text>
    <text x="350" y="230" font-family="Sora, Space Grotesk, Inter, Arial, sans-serif" font-size="92" font-weight="800">Código</text>
    <rect x="704" y="158" width="16" height="16" rx="4" fill="#F26B2E"/>
    <text x="352" y="286" font-family="JetBrains Mono, IBM Plex Mono, SFMono-Regular, monospace" font-size="24" font-weight="600" fill="#737B83">IA sem hype · cloud na prática · demo &gt; slide</text>
  </g>
</svg>
